<svg id="Capa_1" enable-background="new 0 0 512 512" height="512" viewBox="0 0 512 512" width="512" xmlns="http://www.w3.org/2000/svg"><g><g><g clip-rule="evenodd" fill-rule="evenodd"><path d="m114.504 472.069v-150.002c0-8.244-6.75-15-15-15h-45c-8.25 0-15 6.75-15 15v150.002z" fill="#e5ecf5"/><path d="m159.502 277.068v195.001h75v-195.001c0-8.245-6.75-15-15-15h-45c-8.25 0-15 6.75-15 15z" fill="#df95c0"/><path d="m279.501 232.068v240.001h75v-240.001c0-8.247-6.75-15-15-15h-45c-8.25 0-15 6.75-15 15z" fill="#bdedd4"/><path d="m399.5 157.069v315h75v-315c0-8.25-6.75-15-15-15h-45c-8.25 0-15 6.75-15 15z" fill="#feef8f"/><path d="m7.5 472.069h497v30h-497z" fill="#e5ecf5"/><path d="m409.757 103.915 27.243-14.999 27.243 14.999-5.846-30.545 22.684-21.275-30.857-3.879-13.224-28.147-13.224 28.147-30.856 3.879 22.683 21.275z" fill="#feef8f"/><path d="m77.004 307.067h-22.5c-8.25 0-15 6.75-15 15v150.002h22.5v-150.002c0-8.25 6.75-15 15-15z" fill="#b0c5e0"/><path d="m197.002 262.068h-22.5c-8.25 0-15 6.75-15 15v195.001h22.5v-195.001c0-8.25 6.75-15 15-15z" fill="#d15573"/><path d="m317 217.068h-22.5c-8.25 0-15 6.75-15 15v240.001h22.5v-240.001c.001-8.25 6.75-15 15-15z" fill="#7bdaa9"/><path d="m437 142.069h-22.5c-8.25 0-15 6.75-15 15v315h22.5v-315c0-8.25 6.75-15 15-15z" fill="#f7bd83"/><path d="m7.5 472.069h22.5v30h-22.5z" fill="#b0c5e0"/></g><g><path d="m92.004 344.567h-15v-15h15zm119.999-44.999h-15v-15h15zm119.998-45h-15v-15h15zm119.999-44.999h-15v-15h15zm0-30h-15v-15h15z" fill="#fff"/></g></g><g><path d="m482 464.569v-307.5c0-12.407-10.093-22.5-22.5-22.5h-45c-12.406 0-22.5 10.093-22.5 22.5v307.5h-30v-232.501c0-12.407-10.093-22.5-22.5-22.5h-45c-12.406 0-22.5 10.093-22.5 22.5v232.501h-29.999v-187.502c0-12.406-10.093-22.5-22.5-22.5h-45c-12.407 0-22.5 10.093-22.5 22.5v22.5h15v-22.5c0-4.135 3.365-7.5 7.5-7.5h45c4.136 0 7.5 3.364 7.5 7.5v187.502h-60v-150.002h-15v150.002h-29.999v-142.502c0-12.406-10.093-22.5-22.5-22.5h-45c-12.407 0-22.5 10.093-22.5 22.5v142.502h-32.002v45h422v-15h-407v-15h482v15h-30v15h45v-45zm-75-307.5c0-4.136 3.364-7.5 7.5-7.5h45c4.135 0 7.5 3.364 7.5 7.5v307.5h-60zm-119.999 74.999c0-4.136 3.364-7.5 7.5-7.5h45c4.135 0 7.5 3.364 7.5 7.5v232.501h-60zm-239.997 89.999c0-4.135 3.365-7.5 7.5-7.5h45c4.135 0 7.5 3.364 7.5 7.5v142.502h-60z"/><path d="m437 494.569h15v15h-15z"/><path d="m399.39 118.184 37.61-20.706 37.61 20.706-8.07-42.168 31.315-29.371-42.599-5.355-18.256-38.859-18.256 38.859-42.599 5.355 31.315 29.371zm29.418-63.041 8.192-17.436 8.192 17.436 19.114 2.403-14.051 13.179 3.621 18.921-16.876-9.291-16.876 9.291 3.621-18.921-14.051-13.179z"/><path d="m80.129 238.886 223.536-102.454-9.364 25.211 14.062 5.222 18.28-49.215-49.215-18.279-5.222 14.061 25.21 9.364-223.537 102.454z"/></g></g></svg>